<svg xmlns="http://www.w3.org/2000/svg" xmlns:xlink="http://www.w3.org/1999/xlink" width="513.493" height="214.489" viewBox="0 0 513.493 214.489">
  <defs>
    <linearGradient id="linear-gradient" x1="0.5" y1="0.409" x2="0.5" y2="1.02" gradientUnits="objectBoundingBox">
      <stop offset="0" stop-color="#64ffc5"/>
      <stop offset="0.478" stop-color="#0ac982"/>
      <stop offset="1" stop-color="#aaf5d9"/>
    </linearGradient>
    <linearGradient id="linear-gradient-5" x1="0.5" y1="0.191" x2="0.5" y2="1" gradientUnits="objectBoundingBox">
      <stop offset="0" stop-color="#64ffc5"/>
      <stop offset="0.542" stop-color="#12cd87"/>
      <stop offset="1" stop-color="#64ffc5"/>
    </linearGradient>
    <clipPath id="clip-path">
      <rect id="Rectangle_14" data-name="Rectangle 14" width="244.016" height="31.507" fill="url(#linear-gradient-5)"/>
    </clipPath>
  </defs>
  <g id="Group_159" data-name="Group 159" transform="translate(-664 -406.529)">
    <path id="PLUS_X_LOGO" data-name="PLUS X LOGO" d="M331.26,214.385c-10.548-.034-18.322-5.45-23.535-14.769a29.527,29.527,0,0,1-2.978-12.4c.038-21.076,0-42.152,0-63.227,0-1.06.053-2.122.115-3.181a2.661,2.661,0,0,1,2.828-2.8c2.261-.066,4.524-.065,6.786-.032a3.22,3.22,0,0,1,3.211,2.588,13.771,13.771,0,0,1,.457,3.988q.034,27.9.077,55.8a49.483,49.483,0,0,0,.717,8.434,13.991,13.991,0,0,0,12.925,11.479c1.553.076,3.111.062,4.667.062q72.668,0,145.337-.015a35.208,35.208,0,0,0,6.943-.537c6.5-1.294,11.077-7.653,11.17-14.486.158-11.6.081-23.2.092-34.8.008-8.2-.012-16.408.008-24.611a20.806,20.806,0,0,1,.272-3.37c.743-4.449.947-4.748,5.528-4.907,7.336-.255,7.558.706,7.561,6.837.011,21.074.176,42.15-.128,63.22-.194,13.46-9.081,23.957-21.918,26.157a31.011,31.011,0,0,1-5.248.662q-22.347-.007-44.694,0-15.849.005-31.7.006Q370.5,214.489,331.26,214.385Zm-327.915.1A3.345,3.345,0,0,1,0,211.145V82.961a3.345,3.345,0,0,1,3.345-3.345H13.424a3.346,3.346,0,0,1,3.345,3.345v4.934h.359a42.233,42.233,0,0,1,24.9-8.279q19.719,0,33.322,16.193,8.852,11.948,8.852,24.687v2.592q0,16.7-14.035,30.228-12.737,10.5-26.34,10.506H40.52q-11.8,0-23.391-8.132H16.77v55.455a3.346,3.346,0,0,1-3.345,3.344ZM21.588,107.04a25.774,25.774,0,0,0-4.819,14.61q0,14.1,13.243,22.455A25.9,25.9,0,0,0,41.1,147.055h2.231q10.436,0,19.145-9.932a26.447,26.447,0,0,0,4.965-14.969v-.72q0-12.164-10.871-20.44a26.05,26.05,0,0,0-14.395-4.606Q30.008,96.388,21.588,107.04Zm381.006,62.949V154.417a6.349,6.349,0,0,1,12.7,0v15.572a6.349,6.349,0,1,1-12.7,0Zm48.6,1.682L409.118,128.1l-42.072,43.566A14.49,14.49,0,1,1,346.2,151.539l42.775-44.3L346.2,62.95a14.49,14.49,0,0,1,20.847-20.132l42.072,43.567L451.19,42.818A14.491,14.491,0,0,1,472.037,62.95l-42.775,44.3,42.775,44.294a14.49,14.49,0,1,1-20.847,20.131Zm-328.639-34V90.074a3.345,3.345,0,0,1,3.345-3.345h10.435a3.346,3.346,0,0,1,3.345,3.345V136.94c0,8.71,6.094,13.786,15.237,13.788,11.758,0,18.72-7.693,18.866-17.561V90.074a3.345,3.345,0,0,1,3.345-3.345h10.43a3.345,3.345,0,0,1,3.345,3.345V160.3a3.345,3.345,0,0,1-3.345,3.344h-7.462a3.345,3.345,0,0,1-3.322-2.956l-.681-5.816a.834.834,0,0,0-1.509-.389c-4.815,7.075-13.313,11.337-23.152,11.337C133.146,165.82,122.552,154.355,122.552,137.667Zm-23.8,26.444a4,4,0,0,1-4-4V41.731a4,4,0,0,1,4-4h8.77a4,4,0,0,1,4,4V160.11a4,4,0,0,1-4,4Zm106.2,0a3.345,3.345,0,0,1-3.345-3.345V150.686a3.345,3.345,0,0,1,3.345-3.345h60.7s6.522-1.655,7.916-4.965l.576-3.527q0-8.491-10.292-8.492H239.515q-9.573,0-17.706-7.341a24.729,24.729,0,0,1-6.837-17.7,27.375,27.375,0,0,1,6.621-17.633q6.55-7.775,21.016-7.774h62.139q.014-26.313,0-52.627a29.53,29.53,0,0,1,2.978-12.4C312.938,5.554,320.712.139,331.26.1q54.877-.18,109.757-.1,22.564.007,45.128,0a31.01,31.01,0,0,1,5.248.662c12.837,2.2,21.723,12.7,21.918,26.157.3,21.07.139,42.147.128,63.22,0,5.572-.185,6.874-5.726,6.874-.556,0-1.166-.014-1.835-.037-4.581-.158-4.784-.458-5.528-4.907a20.8,20.8,0,0,1-.272-3.37c-.02-8.2,0-16.409-.008-24.612-.011-11.6.066-23.2-.092-34.8-.093-6.833-4.673-13.191-11.17-14.486a35.276,35.276,0,0,0-6.943-.537q-72.669-.027-145.337-.015c-1.556,0-3.114-.014-4.667.062A13.991,13.991,0,0,0,318.936,25.7a49.493,49.493,0,0,0-.717,8.435q-.012,27.9-.077,55.8a13.778,13.778,0,0,1-.457,3.988,3.22,3.22,0,0,1-3.211,2.587q-1.82.027-3.642.02a3.343,3.343,0,0,1-.954.138H242.609q-6.836,0-8.492,2.231a11.54,11.54,0,0,0-2.375,6.621,7.406,7.406,0,0,0,5.185,7.557l3.094.576h22.524q20.44,0,26.7,15.618a30.8,30.8,0,0,1,1.655,9.784q0,15.547-13.819,22.455a25.185,25.185,0,0,1-10.507,2.593Zm249.339-52.348a6.349,6.349,0,1,1,0-12.7h15.571a6.349,6.349,0,1,1,0,12.7Zm-105.338,0a6.349,6.349,0,0,1,0-12.7h15.572a6.349,6.349,0,0,1,0,12.7Zm53.648-51.69V44.5a6.349,6.349,0,0,1,12.7,0V60.071a6.349,6.349,0,0,1-12.7,0Z" transform="translate(664 406.529)" fill="url(#linear-gradient)"/>
    <g id="Group_13" data-name="Group 13" transform="translate(705.146 589.51)">
      <g id="Group_12" data-name="Group 12" transform="translate(0 0)" clip-path="url(#clip-path)">
        <path id="Path_6" data-name="Path 6" d="M11.728,31.506a13.708,13.708,0,0,0,7.857-2.492.833.833,0,0,0,.222-1.1l-.667-1.133a.827.827,0,0,0-1.17-.277,11.014,11.014,0,0,1-6.2,1.877,8.013,8.013,0,0,1-7.981-6.256.838.838,0,0,1,.823-1.011H21.129a.835.835,0,0,0,.835-.78c.013-.19.022-.4.022-.6,0-6.393-4.737-11.544-10.717-11.544A11.353,11.353,0,0,0,0,19.869,11.356,11.356,0,0,0,11.728,31.506M4.635,18.444a.842.842,0,0,1-.82-1.029,7.536,7.536,0,0,1,7.27-6.1,7.536,7.536,0,0,1,7.334,6.15.837.837,0,0,1-.829.979Zm36.951,12.6H43.41a.837.837,0,0,0,.836-.836V1.618A.837.837,0,0,0,43.41.782H41.587a.837.837,0,0,0-.836.836V30.21a.837.837,0,0,0,.836.836m33.153.46A13.7,13.7,0,0,0,82.6,29.014a.833.833,0,0,0,.222-1.1l-.667-1.133a.827.827,0,0,0-1.17-.277,11.012,11.012,0,0,1-6.2,1.877A8.013,8.013,0,0,1,66.8,22.122a.838.838,0,0,1,.823-1.011H84.14a.835.835,0,0,0,.835-.78c.013-.19.022-.4.022-.6C85,13.338,80.259,8.187,74.28,8.187A11.353,11.353,0,0,0,63.012,19.869,11.356,11.356,0,0,0,74.739,31.506ZM67.648,18.444a.842.842,0,0,1-.82-1.03,7.413,7.413,0,0,1,14.6.051.837.837,0,0,1-.829.979Zm46.969,13.062a12.312,12.312,0,0,0,7.964-2.794.827.827,0,0,0,.111-1.14l-1-1.3a.826.826,0,0,0-1.166-.152,9.035,9.035,0,0,1-5.768,1.981,8.024,8.024,0,0,1-8.322-7.713c-.006-.173-.008-.347,0-.52a8.04,8.04,0,0,1,7.793-8.278c.146,0,.294,0,.44,0a8.349,8.349,0,0,1,5.174,1.608.824.824,0,0,0,1.1-.129l1.1-1.239a.844.844,0,0,0-.13-1.234,11.948,11.948,0,0,0-7.292-2.409,11.632,11.632,0,0,0-11.774,11.489c0,.064,0,.129,0,.193a11.594,11.594,0,0,0,11.549,11.638l.225,0m34.035,0a9.226,9.226,0,0,0,4.5-1.244.849.849,0,0,0,.37-1.064l-.5-1.172a.835.835,0,0,0-1.164-.406,6.676,6.676,0,0,1-2.893.758c-1.794,0-3.128-.874-3.128-3.955V12.381a.837.837,0,0,1,.836-.836h5.962a.837.837,0,0,0,.836-.836V9.483a.837.837,0,0,0-.836-.836h-5.962a.837.837,0,0,1-.836-.836V4.178a.836.836,0,0,0-.988-.822l-1.823.335a.836.836,0,0,0-.685.823v3.3a.837.837,0,0,1-.836.836h-1.683a.837.837,0,0,0-.836.836v1.225a.837.837,0,0,0,.836.836h1.685a.837.837,0,0,1,.836.836v11.95c0,5.243,2.344,7.175,6.3,7.175m23.925-.46H174.4a.837.837,0,0,0,.836-.836V20.425c0-5.2,3.072-8.116,7.874-8.4a.837.837,0,0,0,.773-.844V9.059a.846.846,0,0,0-.92-.835,8.769,8.769,0,0,0-7.416,4.525.167.167,0,0,1-.311-.084V9.487a.837.837,0,0,0-.836-.836h-2.659V30.21a.837.837,0,0,0,.836.836m29.988,0h1.825a.837.837,0,0,0,.836-.836V9.483a.837.837,0,0,0-.836-.836h-1.823a.837.837,0,0,0-.836.836l0,20.727a.837.837,0,0,0,.836.836m.912-26.4a2.317,2.317,0,0,0,2.346-2.287V2.346A2.357,2.357,0,0,0,203.477,0a2.316,2.316,0,0,0-2.3,2.333v.013a2.277,2.277,0,0,0,2.255,2.3h.045m32.288,26.86a12.312,12.312,0,0,0,7.964-2.794.826.826,0,0,0,.11-1.14l-1-1.3a.826.826,0,0,0-1.166-.152A9.035,9.035,0,0,1,235.9,28.1a8.024,8.024,0,0,1-8.322-7.713c-.006-.173-.008-.347,0-.52a8.04,8.04,0,0,1,7.793-8.278c.146,0,.294,0,.44,0a8.349,8.349,0,0,1,5.174,1.608.824.824,0,0,0,1.1-.129l1.1-1.239a.844.844,0,0,0-.13-1.234,11.955,11.955,0,0,0-7.292-2.409,11.632,11.632,0,0,0-11.774,11.489c0,.064,0,.129,0,.193A11.594,11.594,0,0,0,235.54,31.507l.225,0" transform="translate(0 0)" fill="url(#linear-gradient-5)"/>
      </g>
    </g>
  </g>
</svg>
